PathFileType	4	(X/Y/Z)	C:/Users/dbak576/Desktop/Duncan Bakke Modelling Files/H30s1/Static_H30s1.trc	
DataRate	CameraRate	NumFrames	NumMarkers	Units	OrigDataRate	OrigDataStartFrame	OrigNumFrames	
200.00	200.00	5	63	mm	200.00	1414	360	
Frame#	Time	LFHD			RFHD			LBHD			RBHD			C7			T10			CLAV			RBack			LASI			RASI			LPSI			RPSI			RACR1			RUA1			RElbow			RElbowM			RFA1			RWRR			RWRU			RCAR			LACR1			LUA1			LElbow			LElbowM			LFA1			LWRR			LWRU			LCAR			RTH1			RTH3			RTH2			RTH4			RLFC			RMFC			RTB1			RTB3			RTB2			RTB4			RLMAL			RMMAL			RMT1			RMT5			RToe			LTH1			LTH3			LTH2			LTH4			LLFC			LMFC			LTB1			LTB3			LTB2			LTB4			LLMAL			LMMAL			LCAL			LMT1			LMT5			LToe			RCAL			STRN			*61			*62			
		X1	Y1	Z1	X2	Y2	Z2	X3	Y3	Z3	X4	Y4	Z4	X5	Y5	Z5	X6	Y6	Z6	X7	Y7	Z7	X8	Y8	Z8	X9	Y9	Z9	X10	Y10	Z10	X11	Y11	Z11	X12	Y12	Z12	X13	Y13	Z13	X14	Y14	Z14	X15	Y15	Z15	X16	Y16	Z16	X17	Y17	Z17	X18	Y18	Z18	X19	Y19	Z19	X20	Y20	Z20	X21	Y21	Z21	X22	Y22	Z22	X23	Y23	Z23	X24	Y24	Z24	X25	Y25	Z25	X26	Y26	Z26	X27	Y27	Z27	X28	Y28	Z28	X29	Y29	Z29	X30	Y30	Z30	X31	Y31	Z31	X32	Y32	Z32	X33	Y33	Z33	X34	Y34	Z34	X35	Y35	Z35	X36	Y36	Z36	X37	Y37	Z37	X38	Y38	Z38	X39	Y39	Z39	X40	Y40	Z40	X41	Y41	Z41	X42	Y42	Z42	X43	Y43	Z43	X44	Y44	Z44	X45	Y45	Z45	X46	Y46	Z46	X47	Y47	Z47	X48	Y48	Z48	X49	Y49	Z49	X50	Y50	Z50	X51	Y51	Z51	X52	Y52	Z52	X53	Y53	Z53	X54	Y54	Z54	X55	Y55	Z55	X56	Y56	Z56	X57	Y57	Z57	X58	Y58	Z58	X59	Y59	Z59	X60	Y60	Z60	X61	Y61	Z61	X62	Y62	Z62	X63	Y63	Z63	

136	0.675	-41.80679	-340.74683	1588.62463	58.07519	-333.79440	1592.74036	-54.27377	-494.40588	1554.32227	89.78360	-482.82813	1564.99475	15.95726	-517.59418	1425.37524	18.96341	-546.87109	1197.35425	17.80644	-392.02780	1343.55188	86.78854	-570.26703	1281.10425	-96.58033	-343.29984	920.00525	155.79547	-351.33206	938.99786	-24.91127	-524.07684	965.15112	74.30071	-524.70477	964.92358	162.18568	-491.48459	1384.82434	299.22803	-476.33499	1327.91638	453.15115	-427.82043	1302.40137	422.31390	-371.71439	1272.87061	579.19940	-403.43784	1341.48828	674.38611	-346.60550	1400.85669	691.27344	-336.69772	1334.71399	754.21326	-327.05765	1386.66602	-117.27901	-483.50220	1395.23865	-260.33014	-489.04694	1333.26050	-405.78253	-451.31287	1295.78967	-391.63922	-398.59503	1260.29102	-536.43231	-404.94339	1337.44580	-621.37415	-344.19794	1399.70837	-633.32196	-317.59952	1338.80457	-698.60095	-323.69199	1390.03284	242.01109	-410.95352	775.93823	224.37547	-422.08426	604.78931	211.26791	-361.92075	689.74426	232.41904	-417.32715	687.86395	213.30855	-432.44351	457.11899	89.84547	-468.33527	435.21646	196.85664	-415.48553	348.34018	202.05553	-430.98514	176.17241	241.35950	-468.83560	267.86194	200.86118	-422.50159	261.89105	225.57994	-487.13321	68.83962	145.13646	-470.61490	80.31125	156.67326	-347.70422	34.37762	245.07617	-380.01492	24.55174	184.63133	-289.65231	26.00143	-174.98929	-408.56879	761.18500	-161.82721	-430.77087	590.88660	-148.94110	-364.74115	669.69812	-170.86818	-420.20306	675.31470	-156.66180	-452.12396	451.99338	-27.04664	-473.26990	428.59439	-107.10470	-414.39490	346.82007	-118.26136	-429.99463	177.03654	-171.73669	-443.38544	266.96985	-113.31713	-425.73734	261.09473	-171.04655	-485.17920	69.59814	-91.01820	-468.36447	79.21837	-130.63574	-535.92365	33.41758	-110.97740	-342.58478	29.84443	-193.11000	-376.25699	24.90776	-140.02415	-283.58215	25.11422	186.49541	-535.45337	38.91187	19.20739	-341.42142	1221.79944						 
137	0.680	-41.79068	-340.77722	1588.62012	58.07944	-333.79141	1592.73828	-54.27704	-494.45193	1554.32520	89.78090	-482.83200	1564.98633	15.95788	-517.59393	1425.37415	18.95791	-546.87360	1197.35571	17.80434	-392.02997	1343.57141	86.77251	-570.24567	1281.10120	-96.58042	-343.29916	920.00494	155.83797	-351.36127	939.02124	-24.90232	-524.06244	965.15417	74.31718	-524.66003	964.92181	162.35750	-491.32092	1384.69714	299.25510	-476.31900	1327.91821	452.82556	-428.60144	1302.99878	422.31351	-371.71616	1272.87061	579.09967	-403.79279	1341.66382	674.41498	-346.62820	1400.87891	691.24622	-336.70636	1334.69189	754.42371	-327.21744	1386.77014	-117.28994	-483.50946	1395.25488	-260.21481	-488.96106	1333.24231	-405.79120	-451.31955	1295.78540	-391.62384	-398.54681	1260.29236	-536.46747	-404.93243	1337.47253	-621.38782	-344.15317	1399.72449	-633.31323	-317.58521	1338.81213	-698.60388	-323.69388	1390.03455	242.00978	-410.95047	775.95343	224.37880	-422.05844	604.79364	211.31540	-362.01184	689.79492	232.42622	-417.32745	687.85187	213.31631	-432.42490	457.14288	89.88277	-468.30701	435.24188	196.91406	-415.48730	348.37689	202.07465	-430.96658	176.17047	241.35901	-468.83414	267.86264	200.92899	-422.43875	261.93237	225.57971	-487.09247	68.83562	145.18425	-470.66583	80.35571	156.68248	-347.70532	34.36860	245.08308	-380.04849	24.55604	184.62692	-289.67236	26.00528	-175.02419	-408.57584	761.12604	-161.82227	-430.76852	590.87347	-148.96466	-364.77060	669.73981	-170.85158	-420.16586	675.33630	-156.67094	-452.13217	451.98077	-27.06564	-473.28461	428.60388	-107.09648	-414.39532	346.83469	-118.26324	-429.95816	177.08012	-171.72609	-443.36792	266.97406	-113.24371	-425.80252	261.19324	-171.07890	-485.14432	69.47245	-91.01962	-468.36502	79.21817	-130.67529	-535.87158	33.30886	-110.97764	-342.58099	29.82791	-193.13667	-376.23038	24.90576	-140.02133	-283.59546	25.11644	186.52480	-535.44519	38.86869	19.11578	-341.28137	1221.78308						 
138	0.685	-41.78856	-340.77716	1588.65662	58.08781	-333.82367	1592.73499	-54.24971	-494.43848	1554.31580	89.79276	-482.82016	1565.00476	15.95763	-517.59406	1425.37451	18.94882	-546.82593	1197.34021	17.83373	-392.03192	1343.55750	86.77333	-570.19318	1281.09229	-96.58391	-343.29800	920.00873	155.80814	-351.35336	939.00122	-24.90224	-524.06158	965.15393	74.32415	-524.68549	964.92297	162.11688	-491.46753	1384.60852	299.24268	-476.32770	1327.88098	453.07501	-427.93652	1302.46643	422.28278	-371.70569	1272.87732	578.98535	-403.36716	1341.40491	674.39203	-346.60562	1400.86230	691.23065	-336.71783	1334.68884	754.24255	-327.03287	1386.67322	-117.28574	-483.50424	1395.25403	-260.20251	-488.95462	1333.23792	-405.78705	-451.31473	1295.79736	-391.63116	-398.56064	1260.31580	-536.46741	-404.92126	1337.48145	-621.40436	-344.14841	1399.73169	-633.29077	-317.56244	1338.84448	-698.58282	-323.62720	1390.08142	242.04666	-410.90277	775.94855	224.34367	-422.07269	604.78943	211.34128	-362.03326	689.83014	232.42604	-417.32822	687.85089	213.30508	-432.43982	457.12970	89.85490	-468.33368	435.22906	196.91951	-415.49103	348.40652	202.07300	-430.99066	176.18063	241.36772	-468.83929	267.84863	200.86969	-422.49448	261.89587	225.56595	-487.15970	68.83772	145.16109	-470.64868	80.35452	156.62909	-347.65433	34.46632	245.10165	-380.02811	24.56665	184.57303	-289.69272	26.01697	-175.01773	-408.53595	761.11902	-161.82445	-430.76212	590.89178	-148.93166	-364.69614	669.72461	-170.84726	-420.16254	675.32983	-156.62898	-452.12964	451.98694	-27.07174	-473.29587	428.60590	-107.09269	-414.39325	346.79105	-118.24018	-429.99710	177.07182	-171.73630	-443.36957	266.98132	-113.24698	-425.80740	261.22610	-170.98737	-485.20276	69.56595	-91.02887	-468.37250	79.16914	-130.63026	-535.90674	33.41273	-110.96124	-342.57224	29.83941	-193.04977	-376.47934	25.01265	-140.04036	-283.60629	25.15630	186.52016	-535.45258	38.85595	19.08235	-341.20480	1221.74854						 
139	0.690	-41.76700	-340.78085	1588.66968	58.07684	-333.83356	1592.75623	-54.27420	-494.45221	1554.32434	89.79585	-482.86426	1564.98328	15.95615	-517.59528	1425.37634	18.94523	-546.82458	1197.35510	17.82036	-392.02914	1343.53882	86.74979	-570.21283	1281.10303	-96.57180	-343.28415	920.00336	155.79327	-351.33218	938.99658	-24.90265	-524.06195	965.15393	74.31759	-524.66095	964.93622	162.08102	-491.49112	1384.62500	299.24887	-476.32632	1327.91626	453.13156	-427.83951	1302.41467	422.30869	-371.71634	1272.86926	579.17023	-403.42969	1341.48181	674.38519	-346.64590	1400.90320	691.23743	-336.66153	1334.69080	754.18921	-327.02145	1386.66211	-117.29681	-483.52484	1395.23914	-260.36993	-489.02765	1333.28528	-405.76785	-451.27139	1295.78625	-391.63763	-398.51300	1260.33325	-536.46600	-404.89749	1337.48926	-621.40588	-344.15054	1399.77002	-633.27716	-317.52618	1338.85168	-698.57751	-323.61789	1390.08179	242.04570	-410.89178	775.98303	224.38055	-422.07709	604.79510	211.35434	-362.00790	689.83081	232.42824	-417.32614	687.84106	213.26257	-432.36005	457.08868	89.84456	-468.33746	435.21649	196.85641	-415.47336	348.33856	202.06978	-430.96542	176.15944	241.33116	-468.81665	267.87012	200.86794	-422.47836	261.89798	225.62041	-487.02182	68.51677	145.16516	-470.63663	80.33333	156.61464	-347.65302	34.47646	245.10014	-380.03299	24.57489	184.61775	-289.65012	26.02125	-175.00546	-408.53516	761.13477	-161.83069	-430.76505	590.90839	-148.91953	-364.71432	669.75787	-170.81438	-420.14038	675.32513	-156.67082	-452.09442	451.99942	-27.05314	-473.26892	428.60577	-107.07762	-414.38754	346.81729	-118.26091	-429.99380	177.04594	-171.73778	-443.35690	267.00769	-113.26974	-425.80914	261.22507	-170.98248	-485.21094	69.57619	-91.04406	-468.34058	79.18839	-130.62979	-535.91394	33.42727	-110.90517	-342.43271	29.95819	-193.09152	-376.49875	25.02203	-140.03479	-283.62411	25.10177	186.52151	-535.44391	38.87313	19.06893	-341.20441	1221.77637						 
140	0.695	-41.76452	-340.77802	1588.66577	58.11821	-333.83701	1592.76123	-54.19223	-494.39575	1554.34229	89.78632	-482.83188	1564.99316	15.91437	-517.59277	1425.36194	18.94945	-546.82281	1197.33948	17.82165	-391.99051	1343.53601	86.74623	-570.21680	1281.10388	-96.55202	-343.23877	920.01428	155.83743	-351.36017	939.02753	-24.88744	-524.01160	965.14642	74.30286	-524.62805	964.93622	162.04988	-491.47003	1384.60315	299.25085	-476.32663	1327.91846	453.15036	-427.84537	1302.45190	422.31244	-371.72946	1272.85596	578.98291	-403.36151	1341.39404	674.37549	-346.60046	1400.90051	691.22253	-336.66629	1334.68860	754.15228	-326.98642	1386.66382	-117.29359	-483.51007	1395.26343	-260.27032	-488.95703	1333.26538	-405.73206	-451.24768	1295.79895	-391.64630	-398.54556	1260.34192	-536.45496	-404.88281	1337.48096	-621.38623	-344.13647	1399.76782	-633.29865	-317.54626	1338.84717	-698.56757	-323.60721	1390.08167	242.01408	-410.90930	775.90375	224.40121	-422.06989	604.77502	211.31602	-361.90158	689.73138	232.45427	-417.34027	687.85510	213.30670	-432.41043	457.12134	89.89562	-468.29196	435.25812	196.93260	-415.48041	348.36786	202.07393	-430.96405	176.16997	241.35085	-468.83130	267.87091	200.92569	-422.45529	261.95367	225.59895	-487.08282	68.76059	145.18387	-470.66330	80.32967	156.61389	-347.65567	34.49425	245.10881	-380.01526	24.56180	184.62178	-289.65823	26.02431	-175.01567	-408.53647	761.12268	-161.82547	-430.76224	590.89343	-148.86707	-364.68073	669.73578	-170.82819	-420.14844	675.33752	-156.65392	-452.05823	451.99417	-27.04191	-473.25769	428.59396	-107.06719	-414.24585	346.90326	-118.26501	-429.95337	177.10345	-171.74245	-443.34097	267.00140	-113.24852	-425.80484	261.20776	-171.01498	-485.19138	69.58541	-91.03043	-468.36667	79.16885	-130.63577	-535.91125	33.46356	-110.98617	-342.60834	29.86893	-193.10674	-376.28870	24.92470	-140.03349	-283.60620	25.14635	186.52446	-535.45441	38.86388	19.07668	-341.22043	1221.78345						 
